<svg width="54" height="53" viewBox="0 0 54 53" fill="none" xmlns="http://www.w3.org/2000/svg">
<path d="M29.0591 7.37649L29.0781 5.75733C29.0831 5.3279 28.9161 4.91404 28.6137 4.6068C28.3113 4.29956 27.8983 4.12411 27.4656 4.11903C27.0329 4.11395 26.6159 4.27967 26.3064 4.57974C25.9968 4.8798 25.8201 5.28962 25.8151 5.71905L25.7961 7.33821C25.791 7.76763 25.9581 8.18149 26.2605 8.48873C26.5629 8.79597 26.9759 8.97143 27.4086 8.9765C27.8413 8.98158 28.2583 8.81586 28.5678 8.5158C28.8773 8.21574 29.0541 7.80591 29.0591 7.37649ZM13.5361 10.5951C13.2271 10.3262 12.8273 10.1828 12.4165 10.1938C12.0057 10.2047 11.6142 10.369 11.3203 10.654C11.0263 10.939 10.8516 11.3235 10.8309 11.7308C10.8103 12.1382 10.9453 12.5382 11.2089 12.8511L12.3538 14.0143C12.6628 14.2832 13.0627 14.4265 13.4735 14.4156C13.8843 14.4047 14.2758 14.2403 14.5697 13.9554C14.8636 13.6704 15.0384 13.2859 15.059 12.8785C15.0797 12.4712 14.9447 12.0712 14.681 11.7583L13.5361 10.5951ZM7.60249 28.1767C8.0352 28.1818 8.45218 28.0161 8.76171 27.716C9.07124 27.416 9.24796 27.0061 9.253 26.5767C9.25804 26.1473 9.09098 25.7334 8.78857 25.4262C8.48617 25.1189 8.07319 24.9435 7.64048 24.9384L6.00897 24.9193C5.57627 24.9142 5.15928 25.0799 4.84975 25.38C4.54022 25.68 4.3635 26.0899 4.35846 26.5193C4.35343 26.9487 4.52049 27.3626 4.82289 27.6698C5.1253 27.9771 5.53828 28.1525 5.97098 28.1576L7.60249 28.1767ZM10.8596 42.6274C11.1618 42.9326 11.5733 43.1067 12.0043 43.1118C12.4353 43.1168 12.8508 42.9524 13.1601 42.6544L14.3319 41.5184C14.6028 41.2118 14.7472 40.815 14.7361 40.4073C14.725 39.9996 14.5593 39.6111 14.2721 39.3193C13.985 39.0275 13.5974 38.854 13.187 38.8335C12.7766 38.8129 12.3735 38.9468 12.0583 39.2084L10.8864 40.3444C10.579 40.6442 10.4036 41.0526 10.3986 41.4804C10.3936 41.9081 10.5593 42.3205 10.8596 42.6274ZM42.0455 39.5602C41.7365 39.2913 41.3366 39.1479 40.9258 39.1589C40.515 39.1698 40.1235 39.3342 39.8296 39.6191C39.5356 39.9041 39.3609 40.2886 39.3403 40.6959C39.3196 41.1033 39.4546 41.5033 39.7183 41.8162L40.8631 42.9794C41.1721 43.2483 41.572 43.3916 41.9828 43.3807C42.3936 43.3698 42.7851 43.2054 43.079 42.9205C43.373 42.6355 43.5477 42.251 43.5684 41.8437C43.589 41.4363 43.454 41.0363 43.1904 40.7234L42.0455 39.5602ZM48.4283 25.4169L46.7968 25.3978C46.3641 25.3927 45.9471 25.5584 45.6376 25.8585C45.328 26.1585 45.1513 26.5684 45.1463 26.9978C45.1413 27.4272 45.3083 27.8411 45.6107 28.1483C45.9131 28.4555 46.3261 28.631 46.7588 28.6361L48.3903 28.6552C48.823 28.6603 49.24 28.4946 49.5495 28.1945C49.8591 27.8945 50.0358 27.4846 50.0408 27.0552C50.0459 26.6258 49.8788 26.2119 49.5764 25.9047C49.274 25.5974 48.861 25.422 48.4283 25.4169ZM43.5397 10.9471C43.2375 10.6419 42.826 10.4678 42.395 10.4627C41.964 10.4577 41.5485 10.6221 41.2392 10.9201L40.0674 12.0561C39.8949 12.1992 39.7541 12.3762 39.6538 12.576C39.5535 12.7757 39.4959 12.9939 39.4846 13.2167C39.4733 13.4396 39.5086 13.6624 39.5882 13.8712C39.6677 14.0799 39.7899 14.2701 39.9471 14.4297C40.1042 14.5894 40.2929 14.7151 40.5013 14.799C40.7098 14.8828 40.9334 14.923 41.1582 14.917C41.383 14.9111 41.6041 14.859 41.8076 14.7642C42.0112 14.6694 42.1928 14.5339 42.341 14.3661L43.5129 13.2301C43.8203 12.9303 43.9957 12.5219 44.0007 12.0941C44.0057 11.6664 43.84 11.254 43.5397 10.9471ZM12.516 26.615C12.4915 29.0079 13.0611 31.37 14.1746 33.4928C15.288 35.6157 16.911 37.4338 18.9002 38.7867L18.7951 47.7406C18.7901 48.17 18.9572 48.5839 19.2596 48.8911C19.562 49.1984 19.975 49.3738 20.4077 49.3789L33.4598 49.532C33.8925 49.5371 34.3095 49.3714 34.619 49.0713C34.9285 48.7712 35.1052 48.3614 35.1103 47.932L35.2153 38.9781C37.3418 37.6036 39.0729 35.7057 40.2399 33.4693C41.4069 31.2329 41.9699 28.7344 41.874 26.2175C41.7781 23.7006 41.0265 21.2512 39.6926 19.1083C38.3588 16.9653 36.4881 15.2019 34.263 13.99C32.038 12.7782 29.5346 12.1593 26.9969 12.1936C24.4593 12.228 21.9741 12.9144 19.7836 14.1861C17.5932 15.4577 15.7723 17.2711 14.4986 19.4494C13.2249 21.6276 12.5418 24.0964 12.516 26.615ZM22.0772 46.1597L22.1152 42.9214L31.9042 43.0362L31.8662 46.2746L22.0772 46.1597ZM27.3326 15.4531C29.8455 15.484 32.2782 16.3365 34.2536 17.8785C36.2291 19.4206 37.637 21.5661 38.2592 23.9826C38.8815 26.3992 38.6833 28.9518 37.6954 31.2449C36.7074 33.538 34.985 35.4436 32.7948 36.6663C32.5442 36.8061 32.3352 37.0091 32.189 37.2547C32.0429 37.5004 31.9648 37.7801 31.9626 38.0654L31.9422 39.7979L28.6792 39.7597L28.7932 30.0447L32.0562 30.083C32.4889 30.0881 32.9059 29.9223 33.2154 29.6223C33.5249 29.3222 33.7017 28.9124 33.7067 28.483C33.7117 28.0535 33.5447 27.6397 33.2423 27.3324C32.9399 27.0252 32.5269 26.8497 32.0942 26.8447L22.3051 26.7298C21.8724 26.7248 21.4554 26.8905 21.1459 27.1905C20.8364 27.4906 20.6596 27.9004 20.6546 28.3298C20.6496 28.7593 20.8166 29.1731 21.119 29.4804C21.4214 29.7876 21.8344 29.9631 22.2671 29.9681L25.5301 30.0064L25.4162 39.7214L22.1531 39.6831L22.1737 37.9344C22.1782 37.6491 22.1066 37.3677 21.9662 37.1186C21.8259 36.8696 21.6217 36.6617 21.3744 36.5162C19.2217 35.2389 17.5523 33.294 16.6239 30.9818C15.6955 28.6695 15.5597 26.1183 16.2375 23.7222C16.9153 21.326 18.3691 19.2179 20.3743 17.7235C22.3795 16.229 24.8248 15.4312 27.3326 15.4531Z" fill="#B4708D"/>
</svg>
