<svg width="24" height="24" viewBox="0 0 24 24" fill="none" xmlns="http://www.w3.org/2000/svg">
<g clip-path="url(#clip0_5597_1756)">
<path fill-rule="evenodd" clip-rule="evenodd" d="M11.4211 8.52554C11.3286 8.49062 11.2317 8.4542 11.131 8.41637L11.4211 8.52554ZM11.131 8.41637C11.131 8.41637 11.131 8.41638 11.131 8.41637C10.3786 8.13361 9.41628 7.77199 8.50898 7.36914C6.85777 6.63597 5.38843 5.76611 5.6964 4.986C5.6964 4.986 6.21699 5.81394 8.50898 7.36914" fill="#FF7420"/>
<path d="M12 0C5.3724 0 0 5.3808 0 12.0204C0 17.3304 3.438 21.8364 8.2068 23.4252C8.8068 23.5356 9.0252 23.1648 9.0252 22.8456C9.0252 22.5612 9.0156 21.804 9.0096 20.802C5.6712 21.528 4.9668 19.1904 4.9668 19.1904C4.422 17.8008 3.6348 17.4312 3.6348 17.4312C2.5452 16.6872 3.7176 16.7016 3.7176 16.7016C4.9212 16.7856 5.5548 17.94 5.5548 17.94C6.6252 19.776 8.364 19.2456 9.0468 18.9384C9.1572 18.162 9.4668 17.6328 9.81 17.3328C7.146 17.0292 4.344 15.9972 4.344 11.3916C4.344 10.3074 9.39271 9.95546 11.5767 9.39158C11.6394 9.13781 11.6991 8.89067 11.7549 8.65258C11.6518 8.61284 11.5401 8.57043 11.4211 8.52554L11.131 8.41637C11.131 8.41637 11.131 8.41638 11.131 8.41637C10.3786 8.13361 9.41628 7.77199 8.50898 7.36914C6.85777 6.63597 5.38843 5.76611 5.6964 4.986C5.6964 4.986 6.21699 5.81394 8.50898 7.36914C9.48791 7.10215 10.9853 5.81423 12 5.8128C12.3341 5.81437 12.1371 7.02102 11.7549 8.65258C12.1936 8.82168 12.4766 8.9424 12.5 9C12.367 9.14566 12.0349 9.27328 11.5767 9.39158C10.7585 12.7084 9.44956 17.1568 10.0485 17.3232C12.3393 15.768 18.3012 4.9848 18.3012 4.9848C18.9564 6.6396 18.5436 7.8624 18.4212 8.166C19.1892 9.006 19.6548 10.08 19.6548 11.3916C19.6548 16.0092 16.848 17.0256 14.1756 17.3232C14.6064 17.694 14.9892 18.4272 14.9892 19.5492C14.9892 21.1548 14.9748 22.452 14.9748 22.8456C14.9748 23.1672 15.1908 23.5416 15.8004 23.424C18.19 22.6225 20.2672 21.0904 21.7386 19.0441C23.2099 16.9977 24.001 14.5408 24 12.0204C24 5.3808 18.6264 0 12 0Z" fill="#FF7420"/>
<rect x="2.5" y="5" width="18" height="14" fill="#FF7420"/>
<ellipse cx="12" cy="20" rx="7.5" ry="4" fill="#FF7420"/>
<path d="M16.5 7C16.3022 7 16.1089 7.05865 15.9444 7.16853C15.78 7.27841 15.6518 7.43459 15.5761 7.61732C15.5005 7.80004 15.4806 8.00111 15.5192 8.19509C15.5578 8.38907 15.653 8.56726 15.7929 8.70711C15.9327 8.84696 16.1109 8.9422 16.3049 8.98078C16.4989 9.01937 16.7 8.99957 16.8827 8.92388C17.0654 8.84819 17.2216 8.72002 17.3315 8.55557C17.4413 8.39112 17.5 8.19778 17.5 8C17.5 7.73478 17.3946 7.48043 17.2071 7.29289C17.0195 7.10536 16.7652 7 16.5 7Z" fill="#121312"/>
<path d="M12 8C11.3078 8 10.6311 8.2346 10.0555 8.67412C9.47993 9.11365 9.03135 9.73836 8.76645 10.4693C8.50154 11.2002 8.4322 12.0044 8.56725 12.7804C8.70229 13.5563 9.03564 14.269 9.52512 14.8284C10.0146 15.3878 10.6383 15.7688 11.3172 15.9231C11.9961 16.0775 12.6999 15.9983 13.3394 15.6955C13.9789 15.3928 14.5256 14.8801 14.9102 14.2223C15.2948 13.5645 15.5 12.7911 15.5 12C15.5 11.4747 15.4095 10.9546 15.2336 10.4693C15.0577 9.98396 14.7999 9.54301 14.4749 9.17158C14.1499 8.80014 13.764 8.5055 13.3394 8.30448C12.9148 8.10346 12.4596 8 12 8ZM12 14.5597C11.5573 14.5581 11.125 14.4067 10.7576 14.1245C10.3902 13.8423 10.1042 13.442 9.93569 12.9741C9.76722 12.5063 9.72383 11.9919 9.81102 11.4958C9.89822 10.9998 10.1121 10.5445 10.4256 10.1873C10.7391 9.83008 11.1382 9.58707 11.5724 9.48894C12.0067 9.39081 12.4567 9.44195 12.8655 9.63591C13.2744 9.82988 13.6238 10.158 13.8696 10.5787C14.1154 10.9995 14.2466 11.4941 14.2466 12C14.2448 12.6796 14.0073 13.3306 13.5862 13.8104C13.1651 14.2903 12.5947 14.5597 12 14.5597Z" fill="#121312"/>
<path d="M14.9942 20H9.00582C8.41411 20 7.82817 19.8757 7.2815 19.6342C6.73483 19.3926 6.23815 19.0386 5.81975 18.5923C5.40134 18.146 5.06943 17.6162 4.84299 17.0331C4.61655 16.45 4.5 15.825 4.5 15.1938V8.80617C4.5 7.5315 4.97475 6.30903 5.81975 5.4077C6.66475 4.50636 7.81081 4 9.00582 4H14.9942C16.1892 4 17.3353 4.50636 18.1803 5.4077C19.0253 6.30903 19.5 7.5315 19.5 8.80617V15.1938C19.5 15.825 19.3835 16.45 19.1571 17.0331C18.9306 17.6162 18.5987 18.146 18.1803 18.5923C17.7619 19.0386 17.2652 19.3926 16.7185 19.6342C16.1718 19.8757 15.5859 20 14.9942 20ZM9.00582 5.50434C8.18485 5.50434 7.3975 5.85221 6.81698 6.47143C6.23647 7.09064 5.91033 7.93047 5.91033 8.80617V15.1938C5.90842 15.6287 5.98711 16.0597 6.14181 16.4621C6.29652 16.8645 6.52423 17.2303 6.81186 17.5386C7.09949 17.8468 7.44138 18.0914 7.81788 18.2583C8.19439 18.4252 8.59809 18.5111 9.00582 18.5111H14.9942C15.4007 18.5111 15.8032 18.4257 16.1788 18.2598C16.5544 18.0938 16.8956 17.8506 17.1831 17.544C17.4705 17.2374 17.6985 16.8734 17.8541 16.4728C18.0096 16.0722 18.0897 15.6429 18.0897 15.2093V8.80617C18.0897 7.93047 17.7636 7.09064 17.1831 6.47143C16.6025 5.85221 15.8152 5.50434 14.9942 5.50434H9.00582Z" fill="#121312"/>
</g>
<defs>
<clipPath id="clip0_5597_1756">
<rect width="24" height="24" fill="white"/>
</clipPath>
</defs>
</svg>
