<svg width="20" height="20" viewBox="0 0 20 20" fill="none" xmlns="http://www.w3.org/2000/svg">
<path d="M10.2123 3.91554C10.3655 4.06789 10.4461 4.26211 10.454 4.49819C10.4619 4.73428 10.3894 4.92893 10.2365 5.08214L6.16464 9.17696L15.4771 9.15073C15.7132 9.15007 15.9115 9.22951 16.0719 9.38906C16.2324 9.54861 16.3127 9.74616 16.3128 9.98171C16.3134 10.2178 16.234 10.4161 16.0745 10.5766C15.9149 10.737 15.7174 10.8173 15.4818 10.8174L6.16934 10.8436L10.2642 14.9154C10.4174 15.0678 10.491 15.262 10.485 15.4982C10.479 15.7343 10.3995 15.9289 10.2466 16.0822C10.0943 16.2354 9.90003 16.3123 9.66392 16.313C9.42781 16.3136 9.23315 16.2378 9.07995 16.0854L3.56448 10.601C3.48095 10.5317 3.42154 10.445 3.38624 10.3406C3.35095 10.2363 3.33342 10.1288 3.33367 10.0183C3.33335 9.90716 3.35028 9.80295 3.38445 9.70563C3.41862 9.60831 3.47754 9.51787 3.56119 9.4343L9.04568 3.91883C9.19802 3.76562 9.39225 3.68868 9.62836 3.68802C9.86447 3.68735 10.0591 3.76319 10.2123 3.91554Z" fill="white"/>
</svg>
