<svg width="19" height="21" viewBox="0 0 19 21" fill="none" xmlns="http://www.w3.org/2000/svg">
<path d="M9.5 0C11.8869 0 14.1761 0.948211 15.864 2.63604C17.5518 4.32387 18.5 6.61305 18.5 9C18.5 12.074 16.824 14.59 15.058 16.395C14.1755 17.2869 13.2128 18.0956 12.182 18.811L11.756 19.101L11.556 19.234L11.179 19.474L10.843 19.679L10.427 19.921C10.1445 20.0818 9.82505 20.1663 9.5 20.1663C9.17495 20.1663 8.85549 20.0818 8.573 19.921L8.157 19.679L7.637 19.359L7.445 19.234L7.035 18.961C5.92298 18.2083 4.88707 17.3489 3.942 16.395C2.176 14.589 0.5 12.074 0.5 9C0.5 6.61305 1.44821 4.32387 3.13604 2.63604C4.82387 0.948211 7.11305 0 9.5 0ZM9.5 6C9.10603 6 8.71593 6.0776 8.35195 6.22836C7.98797 6.37913 7.65726 6.6001 7.37868 6.87868C7.1001 7.15726 6.87913 7.48797 6.72836 7.85195C6.5776 8.21593 6.5 8.60603 6.5 9C6.5 9.39397 6.5776 9.78407 6.72836 10.1481C6.87913 10.512 7.1001 10.8427 7.37868 11.1213C7.65726 11.3999 7.98797 11.6209 8.35195 11.7716C8.71593 11.9224 9.10603 12 9.5 12C10.2956 12 11.0587 11.6839 11.6213 11.1213C12.1839 10.5587 12.5 9.79565 12.5 9C12.5 8.20435 12.1839 7.44129 11.6213 6.87868C11.0587 6.31607 10.2956 6 9.5 6Z" fill="#FF7420"/>
</svg>
