<svg width="24" height="24" viewBox="0 0 24 24" fill="none" xmlns="http://www.w3.org/2000/svg">
<g clip-path="url(#clip0_5597_1746)">
<path d="M22.1 3H2.9C1.58 3 0.512 4.0125 0.512 5.25L0.5 18.75C0.5 19.9875 1.58 21 2.9 21H22.1C23.42 21 24.5 19.9875 24.5 18.75V5.25C24.5 4.0125 23.42 3 22.1 3ZM21.62 7.78125L13.136 12.7537C12.752 12.9788 12.248 12.9788 11.864 12.7537L3.38 7.78125C3.25967 7.71793 3.1543 7.63237 3.07027 7.52976C2.98623 7.42715 2.92527 7.30963 2.89109 7.18429C2.85691 7.05896 2.8502 6.92843 2.87139 6.8006C2.89257 6.67276 2.9412 6.55029 3.01434 6.44059C3.08747 6.33089 3.18359 6.23624 3.29687 6.16237C3.41015 6.0885 3.53825 6.03695 3.67339 6.01084C3.80854 5.98472 3.94794 5.98459 4.08315 6.01044C4.21835 6.0363 4.34656 6.0876 4.46 6.16125L12.5 10.875L20.54 6.16125C20.6534 6.0876 20.7817 6.0363 20.9169 6.01044C21.0521 5.98459 21.1915 5.98472 21.3266 6.01084C21.4618 6.03695 21.5898 6.0885 21.7031 6.16237C21.8164 6.23624 21.9125 6.33089 21.9857 6.44059C22.0588 6.55029 22.1074 6.67276 22.1286 6.8006C22.1498 6.92843 22.1431 7.05896 22.1089 7.18429C22.0747 7.30963 22.0138 7.42715 21.9297 7.52976C21.8457 7.63237 21.7403 7.71793 21.62 7.78125Z" fill="#FF7420"/>
</g>
<defs>
<clipPath id="clip0_5597_1746">
<rect width="24" height="24" fill="white"/>
</clipPath>
</defs>
</svg>
