<svg width="19" height="18" viewBox="0 0 19 18" fill="none" xmlns="http://www.w3.org/2000/svg">
<path d="M16.73 12.2598L14.19 11.9698C13.8914 11.9347 13.5886 11.9678 13.3046 12.0665C13.0206 12.1652 12.7626 12.327 12.55 12.5398L10.71 14.3798C7.87123 12.936 5.56382 10.6286 4.12004 7.78977L5.97004 5.93977C6.40004 5.50977 6.61004 4.90977 6.54004 4.29977L6.25004 1.77977C6.19335 1.29194 5.95923 0.842003 5.59228 0.515614C5.22532 0.189226 4.75115 0.00918337 4.26004 0.00976704H2.53004C1.40004 0.00976704 0.460041 0.949767 0.530041 2.07977C1.06004 10.6198 7.89004 17.4398 16.42 17.9698C17.55 18.0398 18.49 17.0998 18.49 15.9698V14.2398C18.5 13.2298 17.74 12.3798 16.73 12.2598Z" fill="#FF7420"/>
</svg>
